<svg width="24" height="16" viewBox="0 0 24 16" fill="none" xmlns="http://www.w3.org/2000/svg">
<path d="M8.51761 12.5078L20.5978 0.427617C20.8829 0.142539 21.2155 0 21.5956 0C21.9757 0 22.3083 0.142539 22.5933 0.427617C22.8784 0.712695 23.021 1.05146 23.021 1.44392C23.021 1.83638 22.8784 2.17467 22.5933 2.4588L9.51538 15.5724C9.23031 15.8575 8.89772 16 8.51761 16C8.13751 16 7.80492 15.8575 7.51984 15.5724L1.39066 9.44321C1.10558 9.15813 0.968747 8.81984 0.98015 8.42833C0.991553 8.03682 1.14027 7.69805 1.4263 7.41203C1.71232 7.126 2.05109 6.98346 2.4426 6.98441C2.83411 6.98536 3.1724 7.1279 3.45748 7.41203L8.51761 12.5078Z" fill="#2F3542"/>
</svg>
