<svg width="48" height="38" viewBox="0 0 48 38" fill="none" xmlns="http://www.w3.org/2000/svg">
<path d="M44.3941 5.80418C44.746 4.9901 45.6642 4.55902 46.5279 4.8325C47.3918 5.10615 47.8946 5.98754 47.7134 6.85594L47.6675 7.02879V7.03075C47.6671 7.03189 47.6661 7.03403 47.6656 7.03563C47.6644 7.03916 47.6626 7.04429 47.6607 7.05028C47.6566 7.063 47.6506 7.08182 47.6431 7.10497C47.628 7.15167 47.606 7.21936 47.5777 7.30516C47.5207 7.4778 47.4378 7.72643 47.3316 8.0327C47.1192 8.64493 46.813 9.49535 46.4371 10.4487C45.7447 12.2044 44.772 14.4243 43.6705 16.145L43.4478 16.4819C41.7233 19.0265 40.4809 20.6413 38.0445 22.5259L37.5406 22.9077C32.8645 26.367 28.3141 27.3057 23.4976 27.0425L25.6304 23.5727C29.0832 23.466 32.219 22.4899 35.4585 20.0932L35.8814 19.7749C37.9239 18.2002 38.9326 16.9076 40.5513 14.519L40.732 14.2436C41.6331 12.8332 42.5044 10.881 43.1812 9.16454C43.5354 8.26641 43.8245 7.46291 44.025 6.88524C44.1249 6.59709 44.2023 6.36531 44.2544 6.2075C44.2803 6.12923 44.3001 6.06875 44.313 6.02879C44.3194 6.00909 44.3246 5.99338 44.3277 5.98387C44.329 5.97969 44.33 5.97613 44.3306 5.97411L44.3316 5.97215L44.3941 5.80418ZM0.43218 17.7231C0.861629 16.8574 1.91112 16.5038 2.77691 16.9331H2.77788L2.78765 16.938C2.79472 16.9415 2.80589 16.9467 2.81988 16.9536C2.84833 16.9677 2.891 16.9891 2.94585 17.0161C3.05608 17.0703 3.21738 17.1495 3.41851 17.2475C3.82152 17.444 4.38606 17.7165 5.02984 18.022C6.326 18.637 7.91534 19.3707 9.16265 19.8813L11.0113 20.6518C12.6722 21.3485 13.9019 21.8405 15.8892 22.2944L17.3521 22.6177C18.2757 22.8136 19.1687 22.9844 20.0347 23.1274L18.066 26.3315C17.59 26.2405 17.11 26.1441 16.6265 26.0415L15.1099 25.7065C12.8526 25.191 11.3516 24.5924 9.64605 23.8764L7.83648 23.1196C6.49659 22.5711 4.83567 21.8042 3.52886 21.1841C2.87151 20.8722 2.29566 20.5935 1.88433 20.3931C1.67873 20.2928 1.5137 20.2117 1.39995 20.1557C1.34327 20.1279 1.29915 20.1061 1.26909 20.0913C1.25409 20.0839 1.24179 20.0786 1.23394 20.0747C1.23016 20.0728 1.22717 20.0708 1.22515 20.0698L1.2232 20.0688H1.22222V20.0679L1.06597 19.9809C0.315163 19.5087 0.0298497 18.5349 0.43218 17.7231Z" fill="#1E466A"/>
<path d="M15.158 35.7867L36.1248 1.25841M15.158 35.7867L36.1248 1.25841" stroke="#1E466A" stroke-width="2.5" stroke-linecap="round"/>
</svg>
