<svg width="49" height="29" viewBox="0 0 49 29" fill="none" xmlns="http://www.w3.org/2000/svg">
<path d="M9.5 9.74088C5.3457 13.544 3 20.3637 3 20.3637C3 20.3637 12.3713 25.5934 19 26.3637C25.4474 27.1129 30.4028 26.3509 35.5 24.3637C39.0324 22.9866 40.7102 20.9909 43 17.8637C45.3782 14.6159 47 8.36372 47 8.36372C47 8.36372 43.4913 5.23653 41.5 4.24088C38.8284 2.90508 36.4264 2.46517 34.5 2.17008C32.5 1.86371 26.387 1.90276 22 2.86372C16.3675 4.0975 13.753 5.84741 9.5 9.74088Z" stroke="#1E466A" stroke-width="3.5"/>
<circle cx="25" cy="13.8637" r="8.25" stroke="#1E466A" stroke-width="1.5"/>
<path d="M28.2334 18.061C28.2811 18.1111 28.3311 18.1604 28.3848 18.2075L28.5859 18.3657C28.656 18.4147 28.7309 18.4578 28.8086 18.4985C27.7725 19.3509 26.4464 19.8637 25 19.8637C23.6839 19.8637 22.4677 19.4387 21.4785 18.7202C21.6227 18.6366 21.7613 18.5371 21.8877 18.4125C21.9393 18.3617 21.9856 18.3077 22.0303 18.2534C22.8775 18.8276 23.8994 19.1635 25 19.1635C26.2178 19.1635 27.3385 18.7514 28.2334 18.061ZM20.8223 17.933L20.6973 17.976C20.7441 17.9621 20.7884 17.9456 20.8311 17.9282C20.828 17.9294 20.8254 17.9318 20.8223 17.933ZM29.0449 17.4555C29.0812 17.4873 29.1178 17.5156 29.1543 17.5414C29.1179 17.5157 29.081 17.4882 29.0449 17.4565L28.9697 17.3852C28.9934 17.4094 29.0188 17.4325 29.0449 17.4555ZM19.6934 15.8481C19.724 15.8272 19.7535 15.806 19.7842 15.7885L19.8008 15.7797C19.765 15.7999 19.7294 15.8235 19.6934 15.8481ZM22.9326 8.47308C22.932 8.62326 22.9329 8.79479 22.957 8.97113C21.044 9.77081 19.7002 11.6606 19.7002 13.8637C19.7002 14.1577 19.7254 14.446 19.7715 14.727C19.5206 14.7859 19.2953 14.9054 19.1143 15.0307C19.0398 14.6532 19 14.2631 19 13.8637C19 11.2728 20.642 9.06469 22.9424 8.22504L22.9326 8.47308ZM27.2627 8.30609C29.4546 9.19941 31 11.3507 31 13.8637C31 14.1336 30.9799 14.3991 30.9453 14.6596C30.7429 14.5306 30.5188 14.4337 30.2744 14.3754C30.2906 14.207 30.2998 14.0364 30.2998 13.8637C30.2998 11.7279 29.036 9.88832 27.2158 9.04926C27.2514 8.89009 27.2729 8.72499 27.2754 8.55511L27.2734 8.4184C27.272 8.38092 27.2659 8.34369 27.2627 8.30609ZM26.2637 8.71039C26.2634 8.7124 26.262 8.71424 26.2617 8.71625H26.2607C26.2682 8.66267 26.2732 8.60772 26.2744 8.55121L26.2637 8.71039Z" fill="#E91E1E"/>
<path d="M24.9158 7.40576C24.9291 7.45359 24.948 7.50379 24.9763 7.5542C25.045 7.67658 25.1398 7.75573 25.2048 7.8042L25.4226 7.94775C25.5857 8.05035 25.665 8.13847 25.7078 8.2124C25.7383 8.26535 25.7622 8.33224 25.7712 8.42822L25.7751 8.53369C25.7707 8.83951 25.6325 9.05326 25.4607 9.1665C25.3117 9.2646 25.1119 9.30436 24.8904 9.23389L24.7937 9.19678C24.7318 9.16865 24.6569 9.1118 24.5935 9.04053L24.5349 8.96533C24.4656 8.86064 24.456 8.8301 24.45 8.80518C24.4448 8.78394 24.4404 8.75498 24.4373 8.70557L24.4324 8.47998C24.4334 8.23213 24.4692 8.05335 24.532 7.90576C24.579 7.79545 24.6478 7.68551 24.7527 7.56787L24.8699 7.44775C24.8851 7.43324 24.9011 7.41941 24.9158 7.40576Z" fill="#E91E1E" stroke="#E91E1E"/>
<path d="M29.7451 15.8127C30.0925 15.8114 30.502 16.0946 30.6787 16.7355L30.7109 16.8683C30.7441 17.0265 30.7542 17.1124 30.7568 17.1808C30.6974 17.1509 30.6281 17.1272 30.5479 17.1164C30.4398 17.1019 30.3397 17.1148 30.2705 17.1262L30.0215 17.1769C29.8096 17.2243 29.688 17.2243 29.6094 17.2092C29.5583 17.1993 29.5063 17.1793 29.4424 17.134L29.375 17.0803C29.1216 16.8577 29.0624 16.538 29.1514 16.2648C29.2285 16.0284 29.4021 15.8605 29.6396 15.8215L29.7451 15.8127Z" fill="#E91E1E" stroke="#E91E1E"/>
<path d="M20.1113 16.1867C20.361 16.1468 20.556 16.1918 20.7002 16.2805C20.8086 16.3472 20.9095 16.4516 20.9863 16.6027L21.0547 16.7697C21.0714 16.8213 21.0766 16.8455 21.0781 16.8547C21.0779 16.8569 21.0765 16.8659 21.0713 16.8849L21.0283 17.0139C20.9663 17.1807 20.9 17.2798 20.835 17.3439C20.7879 17.3903 20.7284 17.4308 20.6455 17.465L20.5547 17.4973C20.3994 17.5434 20.3164 17.5584 20.2568 17.5627C20.2313 17.5645 20.2051 17.5647 20.1738 17.5617L20.0576 17.5422C19.741 17.4711 19.4257 17.2891 19.1846 17.0617C19.2566 17.0417 19.331 17.0111 19.4014 16.9631C19.5115 16.8879 19.5921 16.7868 19.6426 16.673L19.6826 16.5549C19.6786 16.5707 19.6812 16.5514 19.7188 16.5002C19.7526 16.454 19.8018 16.4008 19.8604 16.3488C19.9188 16.297 19.9793 16.254 20.0322 16.2238L20.1113 16.1867Z" fill="#E91E1E" stroke="#E91E1E"/>
<circle cx="25" cy="13.8637" r="2" fill="#E91E1E"/>
</svg>
