<svg width="150" height="172" viewBox="0 0 150 172" fill="none" xmlns="http://www.w3.org/2000/svg">
<g clip-path="url(#clip0_66_411)">
<path d="M75 86C55.8482 86 39.6429 73.4756 34.1518 56.1752C33.7835 56.6094 33.4152 57.0436 32.9799 57.4443C27.6897 62.7213 19.9888 64.3578 15.0335 64.8254C12.3214 65.0926 10.1451 62.9217 10.4129 60.2164C10.8817 55.3068 12.5223 47.5918 17.8125 42.3148C19.7545 40.3777 22.0313 38.9416 24.375 37.8395C22.0313 36.7707 19.7545 35.3012 17.8125 33.3641C12.5223 28.1205 10.9152 20.4389 10.4129 15.4959C10.1451 12.7906 12.3214 10.6197 15.0335 10.8869C19.9554 11.3545 27.6897 12.991 32.9799 18.268C34.5871 19.8711 35.8929 21.7414 36.8973 23.6451C43.9955 9.91836 58.3929 0.5 75 0.5C98.6719 0.5 117.857 19.6373 117.857 43.25C117.857 66.8627 98.6719 86 75 86ZM0 161.581C0 133.927 18.8839 110.715 44.4643 104.002C46.4732 103.467 48.5491 104.302 49.7879 105.939L70.7143 133.76C72.8571 136.599 77.1429 136.599 79.2857 133.76L100.212 105.939C101.451 104.302 103.527 103.467 105.536 104.002C131.116 110.715 150 133.927 150 161.581C150 167.058 145.547 171.5 140.056 171.5H9.9442C4.45313 171.5 0 167.058 0 161.581ZM53.5714 32.5625C50.625 32.5625 48.2143 34.9672 48.2143 37.9062C48.2143 40.8453 50.625 43.25 53.5714 43.25H96.4286C99.375 43.25 101.786 40.8453 101.786 37.9062C101.786 34.9672 99.375 32.5625 96.4286 32.5625H53.5714Z" fill="#2F3542"/>
</g>
<defs>
<clipPath id="clip0_66_411">
<rect width="150" height="171" fill="white" transform="translate(0 0.5)"/>
</clipPath>
</defs>
</svg>
